<?xml version="1.0" encoding="UTF-8"?><svg id="Layer_1" xmlns="http://www.w3.org/2000/svg" viewBox="0 0 133.29 32.07"><defs><style>.cls-1{fill:#0556ad;}</style></defs><path class="cls-1" d="M50.24,32.07h-5.49c-.49,0-.89-.4-.89-.9V6.43C43.86,2.88,46.72,0,50.24,0h.98c.39,0,.74,.21,.94,.55l7.11,12.72c1.04,1.87,1.94,3.62,2.72,5.26,.22,.47,.47,1.05,.72,1.63,.2,.47,.89,.31,.86-.2-.12-1.88-.18-4.11-.18-6.69V.9c0-.5,.4-.9,.89-.9h5.49c.49,0,.89,.4,.89,.9V31.17c0,.5-.4,.9-.89,.9h-6.57c-.32,0-.61-.17-.77-.45l-7.35-12.82c-1.01-1.71-1.9-3.4-2.67-5.07-.2-.43-.43-.97-.66-1.52-.19-.48-.9-.31-.86,.21,.18,1.96,.26,4.09,.26,6.39v12.37c0,.5-.4,.9-.89,.9"/><path class="cls-1" d="M88.34,6.05h-2.81c-.25,0-.45,.2-.45,.45V25.63c0,.25,.2,.45,.45,.45h2.86c2.93,0,5.19-.92,6.78-2.76,1.59-1.84,2.39-4.44,2.39-7.8,0-2.85-.8-5.15-2.41-6.88-1.61-1.73-3.87-2.59-6.8-2.59m.14,26.03h-9.97c-.49,0-.89-.4-.89-.9V.9c0-.5,.4-.9,.89-.9h10.07c4.79,0,8.71,1.48,11.76,4.45,3.05,2.97,4.58,6.65,4.58,11.06,0,5.14-1.5,9.18-4.51,12.13-3.01,2.95-6.98,4.42-11.93,4.42"/><path class="cls-1" d="M120.58,5.85h-2.39c-.25,0-.45,.2-.45,.45V15.44c0,.25,.2,.45,.45,.45h1.96c3.84,0,5.76-1.76,5.76-5.28,0-3.17-1.78-4.76-5.34-4.76m.85,15.84h-3.24c-.25,0-.45,.2-.45,.45v3.5c0,3.55-2.86,6.43-6.38,6.43h0c-.49,0-.89-.4-.89-.9V.9c0-.5,.4-.9,.89-.9h10.07c3.53,0,6.38,1,8.57,3,2.19,2,3.28,4.54,3.28,7.61,0,3.52-1.14,6.25-3.43,8.18-2.28,1.94-5.09,2.9-8.43,2.9"/><path class="cls-1" d="M24.75,0c.53,0,.95,.46,.89,.99-.49,4.97-4.66,8.85-9.72,8.85S6.69,5.96,6.2,.99c-.05-.53,.36-.99,.89-.99H24.75Z"/><path class="cls-1" d="M24.75,32.07H7.09c-.53,0-.95-.46-.89-.99,.49-4.97,4.66-8.85,9.72-8.85s9.23,3.88,9.72,8.85c.05,.53-.37,.99-.89,.99"/><path class="cls-1" d="M9.77,16.04c0,5.1-3.85,9.3-8.79,9.79-.53,.05-.99-.37-.99-.9V7.14c0-.53,.46-.95,.99-.9,4.94,.5,8.79,4.69,8.79,9.79"/><path class="cls-1" d="M31.84,7.14V24.93c0,.53-.46,.95-.99,.9-4.93-.5-8.79-4.69-8.79-9.79s3.85-9.3,8.79-9.79c.53-.05,.99,.37,.99,.9"/></svg>