<?xml version="1.0" encoding="UTF-8"?><svg id="Layer_1" xmlns="http://www.w3.org/2000/svg" viewBox="0 0 391.8 52.8"><defs><style>.cls-1{fill:#fff;}</style></defs><path class="cls-1" d="M38.96,.81c.83,0,1.49,.72,1.41,1.55-.78,7.77-7.33,13.83-15.31,13.83S10.53,10.13,9.76,2.36c-.08-.83,.57-1.55,1.41-1.55h27.8Z"/><path class="cls-1" d="M38.96,51.19H11.16c-.83,0-1.49-.72-1.41-1.55,.78-7.77,7.33-13.83,15.31-13.83s14.53,6.07,15.31,13.83c.08,.83-.58,1.55-1.41,1.55"/><path class="cls-1" d="M15.39,25.88c0,7.97-6.07,14.53-13.84,15.31-.83,.08-1.55-.57-1.55-1.41V11.98c0-.83,.72-1.49,1.55-1.41,7.77,.78,13.84,7.34,13.84,15.31"/><path class="cls-1" d="M50.13,11.98v27.8c0,.83-.72,1.49-1.55,1.41-7.77-.78-13.83-7.33-13.83-15.31s6.07-14.53,13.83-15.31c.83-.08,1.55,.58,1.55,1.41"/><path class="cls-1" d="M68.43,22.13h-3.15c-.18,0-.33-.15-.33-.33V2.06c0-.18,.15-.33,.33-.33h3.81c.12,0,.23,.06,.29,.17l4.81,8.34c.81,1.39,1.53,2.69,2.16,3.89,.38,.72,.89,1.77,1.23,2.49,.08,.17,.33,.1,.31-.08-.11-1.6-.17-3.69-.17-6.3V2.06c0-.18,.15-.33,.33-.33h3.18c.18,0,.33,.15,.33,.33V21.8c0,.18-.15,.33-.33,.33h-3.84c-.12,0-.23-.06-.28-.16l-4.87-8.31c-.79-1.33-1.5-2.61-2.13-3.83-.38-.73-.9-1.83-1.27-2.61-.08-.17-.33-.1-.31,.08,.15,1.75,.23,3.85,.23,6.32v8.18c0,.18-.15,.33-.33,.33"/><path class="cls-1" d="M90.89,19.56c.81,0,1.44-.24,1.89-.71,.45-.47,.68-1.09,.68-1.86v-1.29c0-.09-.07-.17-.17-.17h-1.71c-.95,0-1.68,.2-2.18,.59-.51,.39-.76,.89-.76,1.5,0,1.29,.75,1.94,2.24,1.94m2.73,1.29c0-.16-.2-.22-.3-.09-.76,1-1.99,1.5-3.7,1.5-1.45,0-2.61-.42-3.47-1.27-.86-.85-1.29-1.92-1.29-3.21,0-1.45,.54-2.59,1.63-3.42,1.09-.83,2.66-1.24,4.72-1.24h2.07c.09,0,.17-.07,.17-.17v-.77c0-.85-.22-1.49-.67-1.94-.44-.44-1.2-.67-2.27-.67-1.44,0-2.78,.35-4.02,1.06-.22,.12-.49-.04-.49-.29v-2.58c0-.12,.06-.23,.17-.29,1.14-.64,2.74-.96,4.8-.96,4.16,0,6.24,1.94,6.24,5.81v9.48c0,.18-.15,.33-.33,.33h-2.94c-.18,0-.33-.15-.33-.33v-.95Z"/><path class="cls-1" d="M115.9,22.13h-2.97c-.18,0-.33-.15-.33-.33V7.11c0-.18,.15-.33,.33-.33h2.97c.18,0,.33,.15,.33,.33v14.69c0,.18-.15,.33-.33,.33m.7-19.95c0,.63-.21,1.15-.64,1.57-.42,.42-.94,.64-1.54,.64s-1.12-.21-1.54-.64c-.42-.42-.64-.95-.64-1.57s.21-1.12,.64-1.54c.42-.42,.94-.63,1.54-.63s1.12,.21,1.54,.63c.42,.42,.64,.94,.64,1.54"/><path class="cls-1" d="M123.32,14.5c0,1.41,.31,2.59,.94,3.54,.63,.95,1.51,1.42,2.67,1.42s2.09-.46,2.69-1.39c.6-.93,.91-2.11,.91-3.54s-.29-2.68-.88-3.62c-.59-.94-1.51-1.41-2.75-1.41-1.15,0-2.04,.48-2.65,1.42-.62,.95-.92,2.14-.92,3.57m10.99-.09c0,2.32-.65,4.23-1.95,5.72-1.3,1.49-3.12,2.24-5.46,2.24s-4.13-.73-5.43-2.18c-1.3-1.45-1.95-3.31-1.95-5.57s.68-4.27,2.03-5.8c1.35-1.52,3.14-2.28,5.36-2.28,2.36,0,4.19,.74,5.48,2.22,1.29,1.48,1.94,3.37,1.94,5.65"/><path class="cls-1" d="M150.41,22.13h-2.97c-.18,0-.33-.15-.33-.33V12.68c0-1.01-.24-1.77-.73-2.29-.49-.51-1.14-.77-1.97-.77-.95,0-1.75,.37-2.39,1.11-.65,.74-.97,1.79-.97,3.16v7.9c0,.18-.15,.33-.33,.33h-2.97c-.18,0-.33-.15-.33-.33V7.11c0-.18,.15-.33,.33-.33h2.97c.18,0,.33,.15,.33,.33v1.65c0,.17,.22,.23,.31,.08,.91-1.49,2.38-2.24,4.42-2.24,1.53,0,2.75,.46,3.63,1.39,.89,.93,1.33,2.24,1.33,3.94v9.87c0,.18-.15,.33-.33,.33"/><path class="cls-1" d="M159.79,19.56c.81,0,1.44-.24,1.89-.71,.45-.47,.68-1.09,.68-1.86v-1.29c0-.09-.08-.17-.17-.17h-1.71c-.95,0-1.68,.2-2.18,.59-.51,.39-.76,.89-.76,1.5,0,1.29,.75,1.94,2.24,1.94m2.73,1.29c0-.16-.2-.22-.3-.09-.75,1-1.99,1.5-3.7,1.5-1.45,0-2.61-.42-3.47-1.27-.86-.85-1.29-1.92-1.29-3.21,0-1.45,.54-2.59,1.63-3.42,1.09-.83,2.66-1.24,4.72-1.24h2.07c.09,0,.17-.07,.17-.17v-.77c0-.85-.22-1.49-.67-1.94-.44-.44-1.2-.67-2.27-.67-1.44,0-2.78,.35-4.02,1.06-.22,.12-.49-.04-.49-.29v-2.58c0-.12,.06-.23,.16-.29,1.14-.64,2.74-.96,4.8-.96,4.16,0,6.24,1.94,6.24,5.81v9.48c0,.18-.15,.33-.33,.33h-2.94c-.18,0-.33-.15-.33-.33v-.95Z"/><path class="cls-1" d="M173.33,22.13h-2.97c-.18,0-.33-.15-.33-.33V1.06c0-.18,.15-.33,.33-.33h2.97c.18,0,.33,.15,.33,.33V21.8c0,.18-.15,.33-.33,.33"/><path class="cls-1" d="M109.45,21.55c0,.13-.08,.26-.2,.3-1.29,.53-3.49,.57-4.8,.08-1.8-.65-2.69-2.21-2.69-4.68v-7.42c0-.18-.15-.33-.33-.33h-1.64c-.18,0-.33-.15-.33-.33v-2.06c0-.18,.15-.33,.33-.33h1.64c.18,0,.33-.15,.33-.33V3.42c0-.18,.15-.33,.33-.33h2.97c.18,0,.33,.15,.33,.33v3.03c0,.18,.15,.33,.33,.33h3.15c.18,0,.33,.15,.33,.33v2.06c0,.18-.15,.33-.33,.33h-3.15c-.18,0-.33,.15-.33,.33v7.48c0,.65,.17,1.13,.51,1.47,.34,.33,.82,.5,1.42,.5s1.13-.12,1.64-.37c.22-.11,.48,.05,.48,.29v2.34Z"/><path class="cls-1" d="M191.42,4.93h-2.47c-.09,0-.17,.07-.17,.17v13.85h2.7c2.14,0,3.76-.66,4.87-1.98,1.11-1.32,1.67-3.09,1.67-5.31,0-1.96-.59-3.57-1.77-4.83-1.18-1.26-2.79-1.89-4.83-1.89m.12,17.19h-6.33c-.18,0-.33-.15-.33-.33V2.06c0-.18,.15-.33,.33-.33h6.33c3.05,0,5.54,.94,7.48,2.81,1.94,1.88,2.91,4.25,2.91,7.12,0,3.13-.94,5.66-2.82,7.58-1.88,1.93-4.4,2.89-7.57,2.89"/><path class="cls-1" d="M216.12,14.26c0,1.43,.31,2.53,.94,3.28,.63,.76,1.42,1.13,2.39,1.13s1.82-.39,2.48-1.17c.67-.78,1-1.79,1-3.04,0-1.63-.32-2.84-.97-3.6-.65-.77-1.46-1.15-2.45-1.15-1.05,0-1.88,.41-2.48,1.23-.61,.82-.91,1.92-.91,3.31m10.45,6.48c0,2.42-.7,4.24-2.1,5.46-1.4,1.22-3.18,1.83-5.34,1.83-1.93,0-3.63-.33-5.1-1-.12-.05-.19-.17-.19-.31v-2.87c0-.26,.28-.41,.5-.28,1.27,.75,2.75,1.13,4.44,1.13,2.78,0,4.18-1.33,4.18-4v-.8c0-.16-.2-.22-.29-.1-.93,1.22-2.28,1.84-4.07,1.84s-3.18-.63-4.4-1.89c-1.22-1.26-1.83-3.09-1.83-5.49,0-2.22,.58-4.05,1.74-5.5,1.16-1.44,2.69-2.16,4.59-2.16,1.72,0,3.05,.64,3.97,1.93,.09,.13,.3,.07,.3-.09v-1.33c0-.18,.15-.33,.33-.33h2.97c.18,0,.33,.15,.33,.33v13.62Z"/><path class="cls-1" d="M268.47,22.13h-2.97c-.18,0-.33-.15-.33-.33V1.06c0-.18,.15-.33,.33-.33h2.97c.18,0,.33,.15,.33,.33V21.8c0,.18-.15,.33-.33,.33"/><path class="cls-1" d="M254.9,19.63c.81,0,1.44-.24,1.89-.71,.45-.47,.68-1.09,.68-1.86v-1.29c0-.09-.07-.17-.17-.17h-1.71c-.95,0-1.68,.2-2.18,.59-.51,.39-.76,.89-.76,1.5,0,1.29,.75,1.94,2.24,1.94m2.73,1.29c0-.16-.2-.22-.3-.09-.76,1-1.99,1.5-3.7,1.5-1.45,0-2.61-.42-3.47-1.27-.86-.85-1.29-1.92-1.29-3.21,0-1.45,.54-2.59,1.63-3.42,1.09-.83,2.66-1.24,4.72-1.24h2.07c.09,0,.17-.07,.17-.17v-.77c0-.85-.22-1.49-.67-1.94-.44-.44-1.2-.67-2.27-.67-1.44,0-2.78,.35-4.02,1.06-.22,.12-.49-.04-.49-.29v-2.58c0-.12,.06-.23,.16-.29,1.14-.64,2.74-.96,4.8-.96,4.16,0,6.24,1.94,6.24,5.81v9.48c0,.18-.15,.33-.33,.33h-2.94c-.18,0-.33-.15-.33-.33v-.95Z"/><path class="cls-1" d="M246.67,21.6c0,.13-.08,.26-.2,.3-1.29,.53-3.49,.57-4.8,.08-1.8-.65-2.69-2.21-2.69-4.68v-7.42c0-.18-.15-.33-.33-.33h-1.64c-.18,0-.33-.15-.33-.33v-2.06c0-.18,.15-.33,.33-.33h1.64c.18,0,.33-.15,.33-.33V3.47c0-.18,.15-.33,.33-.33h2.97c.18,0,.33,.15,.33,.33v3.03c0,.18,.15,.33,.33,.33h3.15c.18,0,.33,.15,.33,.33v2.06c0,.18-.15,.33-.33,.33h-3.15c-.18,0-.33,.15-.33,.33v7.48c0,.65,.17,1.14,.51,1.47,.34,.33,.82,.5,1.42,.5s1.13-.12,1.64-.37c.22-.11,.48,.05,.48,.29v2.34Z"/><path class="cls-1" d="M233.77,22.13h-2.97c-.18,0-.33-.15-.33-.33V7.11c0-.18,.15-.33,.33-.33h2.97c.18,0,.33,.15,.33,.33v14.69c0,.18-.15,.33-.33,.33m.7-19.95c0,.63-.21,1.15-.64,1.57-.42,.42-.94,.64-1.54,.64s-1.12-.21-1.54-.64c-.43-.42-.64-.95-.64-1.57s.21-1.12,.64-1.54c.42-.42,.94-.63,1.54-.63s1.12,.21,1.54,.63c.42,.42,.64,.94,.64,1.54"/><path class="cls-1" d="M208.62,22.13h-2.97c-.18,0-.33-.15-.33-.33V7.11c0-.18,.15-.33,.33-.33h2.97c.18,0,.33,.15,.33,.33v14.69c0,.18-.15,.33-.33,.33m.7-19.95c0,.63-.21,1.15-.64,1.57-.42,.42-.94,.64-1.54,.64s-1.12-.21-1.54-.64c-.43-.42-.64-.95-.64-1.57s.21-1.12,.64-1.54c.42-.42,.94-.63,1.54-.63s1.12,.21,1.54,.63c.42,.42,.64,.94,.64,1.54"/><path class="cls-1" d="M286.63,4.45h-2.08c-.09,0-.16,.07-.16,.17v6.94c0,.09,.07,.17,.16,.17h1.98c1.39,0,2.43-.33,3.12-1,.69-.66,1.03-1.56,1.03-2.69s-.34-1.98-1.03-2.62c-.68-.64-1.7-.95-3.03-.95m.42,10.35h-2.5c-.09,0-.16,.07-.16,.17v6.77h-3.48c-.18,0-.33-.15-.33-.33V1.66c0-.18,.15-.33,.33-.33h6.06c2.3,0,4.14,.63,5.52,1.88,1.38,1.25,2.07,2.86,2.07,4.81,0,2.08-.71,3.73-2.13,4.95-1.42,1.22-3.21,1.83-5.37,1.83"/><path class="cls-1" d="M300.71,21.74h-2.97c-.18,0-.33-.15-.33-.33V.67c0-.18,.15-.33,.33-.33h2.97c.18,0,.33,.15,.33,.33V21.41c0,.18-.15,.33-.33,.33"/><path class="cls-1" d="M310.4,19.16c.81,0,1.44-.24,1.89-.71,.45-.47,.68-1.09,.68-1.86v-1.29c0-.09-.07-.17-.17-.17h-1.71c-.95,0-1.67,.2-2.18,.59-.5,.39-.76,.89-.76,1.5,0,1.29,.75,1.94,2.24,1.94m2.72,.73c-.71,1.31-2.04,1.97-4,1.97-1.45,0-2.61-.42-3.47-1.27-.86-.85-1.29-1.92-1.29-3.21,0-1.45,.54-2.59,1.63-3.42,1.09-.83,2.66-1.24,4.72-1.24h2.07c.09,0,.17-.07,.17-.17v-.77c0-.85-.22-1.49-.67-1.94-.44-.44-1.2-.67-2.27-.67-1.44,0-2.78,.35-4.02,1.06-.22,.12-.49-.04-.49-.29v-2.58c0-.12,.06-.23,.17-.29,1.14-.64,2.74-.96,4.8-.96,4.16,0,6.24,1.94,6.24,5.81v9.48c0,.18-.15,.33-.33,.33h-2.94c-.18,0-.33-.15-.33-.33v-1.52Z"/><path class="cls-1" d="M339.49,9.11h-2.56c-.09,0-.17,.07-.17,.17v12.13c0,.18-.15,.33-.33,.33h-2.97c-.18,0-.33-.15-.33-.33V9.28c0-.09-.07-.17-.17-.17h-1.74c-.18,0-.33-.15-.33-.33v-2.06c0-.18,.15-.33,.33-.33h1.74c.09,0,.17-.07,.17-.17v-.74c0-1.72,.47-3.06,1.42-4.03C335.5,.49,336.81,0,338.49,0c.66,0,1.25,.07,1.76,.2,.14,.04,.24,.17,.24,.32V2.87c0,.22-.21,.38-.42,.32-.38-.11-.74-.16-1.1-.16-1.47,0-2.21,.83-2.21,2.48v.71c0,.09,.07,.17,.17,.17h2.56c.18,0,.33,.15,.33,.33v2.06c0,.18-.15,.33-.33,.33"/><path class="cls-1" d="M345.24,14.11c0,1.41,.31,2.6,.94,3.54,.63,.95,1.51,1.42,2.66,1.42s2.09-.46,2.7-1.39c.61-.93,.91-2.11,.91-3.54s-.29-2.68-.88-3.62c-.59-.94-1.51-1.41-2.76-1.41-1.15,0-2.04,.48-2.65,1.42-.62,.95-.92,2.14-.92,3.57m10.99-.09c0,2.32-.65,4.23-1.95,5.72-1.3,1.49-3.12,2.24-5.46,2.24s-4.13-.73-5.43-2.18c-1.3-1.45-1.95-3.31-1.95-5.57s.68-4.27,2.03-5.8c1.35-1.52,3.14-2.28,5.36-2.28,2.36,0,4.19,.74,5.48,2.22,1.29,1.48,1.94,3.37,1.94,5.65"/><path class="cls-1" d="M362.65,21.74h-3c-.18,0-.33-.15-.33-.33l.03-14.69c0-.18,.15-.33,.33-.33h2.97c.18,0,.33,.15,.33,.33v1.61c0,.17,.23,.23,.31,.08,.75-1.43,1.94-2.15,3.57-2.15,.29,0,.53,.01,.74,.04,.16,.02,.28,.16,.28,.33v2.76c0,.22-.21,.38-.42,.32-.35-.1-.72-.15-1.12-.15-.99,0-1.8,.4-2.42,1.21-.62,.81-.94,1.82-.94,3.03v7.6c0,.18-.15,.33-.33,.33"/><path class="cls-1" d="M391.47,21.74h-3c-.18,0-.33-.15-.33-.33V12.32c0-2.06-.79-3.09-2.36-3.09-.79,0-1.49,.34-2.1,1.03-.62,.69-.92,1.77-.92,3.24v7.9c0,.18-.15,.33-.33,.33h-3c-.18,0-.33-.15-.33-.33V12.32c0-2.06-.79-3.09-2.36-3.09-.79,0-1.49,.34-2.12,1.03-.62,.69-.94,1.77-.94,3.24v7.9c0,.18-.15,.33-.33,.33h-2.97c-.18,0-.33-.15-.33-.33V6.72c0-.18,.15-.33,.33-.33h2.97c.18,0,.33,.15,.33,.33v1.47c0,.17,.21,.23,.3,.09,.89-1.38,2.23-2.07,4.02-2.07,2.1,0,3.51,.85,4.23,2.56,.05,.12,.23,.13,.3,.01,.4-.77,.95-1.37,1.65-1.81,.81-.5,1.73-.76,2.75-.76,1.55,0,2.76,.47,3.6,1.41,.85,.94,1.27,2.28,1.27,4.01v9.78c0,.18-.15,.33-.33,.33"/><path class="cls-1" d="M328.96,21.16c0,.13-.08,.26-.2,.3-1.29,.53-3.49,.57-4.8,.08-1.8-.65-2.69-2.21-2.69-4.68v-7.42c0-.18-.15-.33-.33-.33h-1.64c-.18,0-.33-.15-.33-.33v-2.06c0-.18,.15-.33,.33-.33h1.64c.18,0,.33-.15,.33-.33V3.03c0-.18,.15-.33,.33-.33h2.97c.18,0,.33,.15,.33,.33v3.03c0,.18,.15,.33,.33,.33h3.15c.18,0,.33,.15,.33,.33v2.06c0,.18-.15,.33-.33,.33h-3.15c-.18,0-.33,.15-.33,.33v7.48c0,.65,.17,1.14,.51,1.47,.34,.33,.82,.5,1.42,.5s1.13-.12,1.64-.37c.22-.11,.48,.05,.48,.29v2.34Z"/><g><path class="cls-1" d="M74.14,36.39h-3.76v12.45h-1.67v-12.45h-3.76v-1.47h9.19v1.47Z"/><path class="cls-1" d="M83.67,48.3c-.81,.43-1.8,.64-2.97,.64-1.58,0-2.86-.49-3.83-1.46s-1.45-2.25-1.45-3.85,.43-2.98,1.3-3.94,1.98-1.44,3.34-1.44,2.35,.42,3.12,1.26c.77,.84,1.16,2.03,1.16,3.57,0,.44-.03,.85-.1,1.22h-7.14c.12,1.03,.52,1.82,1.18,2.37,.66,.55,1.53,.83,2.6,.83,1.17,0,2.11-.24,2.81-.72v1.53Zm-3.61-8.63c-.78,0-1.45,.28-2,.85-.55,.56-.87,1.37-.97,2.41h5.61v-.41c0-.87-.23-1.56-.7-2.07-.47-.52-1.12-.77-1.94-.77Z"/><path class="cls-1" d="M94.01,48.47c-.66,.4-1.47,.6-2.44,.6-1.65,0-2.96-.53-3.93-1.58-.97-1.05-1.45-2.34-1.45-3.85s.48-2.77,1.45-3.84,2.29-1.61,3.97-1.61c.89,0,1.69,.19,2.39,.58v1.55c-.63-.43-1.38-.64-2.23-.64-1.18,0-2.13,.38-2.84,1.15-.71,.76-1.06,1.71-1.06,2.84,.01,1.13,.36,2.07,1.03,2.82,.67,.75,1.63,1.12,2.87,1.12,.8,0,1.54-.23,2.23-.68v1.55Z"/><path class="cls-1" d="M104.79,48.84h-1.63v-6.77c0-.76-.2-1.34-.59-1.75-.39-.41-.91-.62-1.54-.62-.77,0-1.45,.3-2.02,.89-.58,.59-.87,1.44-.87,2.54v5.72h-1.61v-14.59h1.61v5.94c.62-1.31,1.72-1.96,3.3-1.96,1,0,1.81,.31,2.43,.93s.92,1.46,.92,2.52v7.16Z"/><path class="cls-1" d="M115.93,48.84h-1.63v-6.77c0-.77-.2-1.36-.59-1.76-.39-.41-.91-.61-1.54-.61-.78,0-1.46,.3-2.03,.91s-.86,1.44-.86,2.52v5.72h-1.61v-10.47h1.61v1.82c.62-1.31,1.72-1.96,3.3-1.96,1.02,0,1.83,.31,2.44,.93s.91,1.44,.91,2.48v7.2Z"/><path class="cls-1" d="M128.03,43.64c0,1.55-.44,2.84-1.32,3.86-.88,1.02-2.09,1.53-3.63,1.53s-2.69-.51-3.56-1.52c-.87-1.01-1.31-2.29-1.31-3.83s.45-2.85,1.35-3.89c.9-1.04,2.07-1.56,3.52-1.56,1.58,0,2.8,.51,3.66,1.53,.86,1.02,1.29,2.31,1.29,3.88Zm-8.13,.02c0,1.09,.29,2.01,.87,2.78s1.35,1.15,2.31,1.15c1.05,0,1.85-.37,2.41-1.13,.56-.75,.85-1.68,.85-2.8s-.27-2.11-.81-2.86-1.36-1.13-2.46-1.13c-.99,0-1.77,.39-2.33,1.16-.56,.77-.85,1.71-.85,2.83Z"/><path class="cls-1" d="M132.14,48.84h-1.63v-14.59h1.63v14.59Z"/><path class="cls-1" d="M144.44,43.64c0,1.55-.44,2.84-1.32,3.86-.88,1.02-2.09,1.53-3.63,1.53s-2.69-.51-3.56-1.52c-.87-1.01-1.31-2.29-1.31-3.83s.45-2.85,1.35-3.89c.9-1.04,2.07-1.56,3.52-1.56,1.58,0,2.8,.51,3.66,1.53,.86,1.02,1.29,2.31,1.29,3.88Zm-8.13,.02c0,1.09,.29,2.01,.87,2.78s1.35,1.15,2.31,1.15c1.05,0,1.85-.37,2.41-1.13,.56-.75,.85-1.68,.85-2.8s-.27-2.11-.81-2.86-1.36-1.13-2.46-1.13c-.99,0-1.77,.39-2.33,1.16-.56,.77-.85,1.71-.85,2.83Z"/><path class="cls-1" d="M155.28,47.99c0,1.6-.44,2.8-1.32,3.6-.88,.8-2.02,1.21-3.41,1.21-1.27,0-2.35-.21-3.24-.64v-1.63c.88,.51,1.91,.76,3.1,.76,1,0,1.8-.27,2.37-.81s.87-1.38,.87-2.52v-1.18c-.69,1.18-1.71,1.78-3.08,1.78-1.2,0-2.22-.44-3.06-1.32-.85-.88-1.27-2.11-1.27-3.67s.39-2.83,1.18-3.84,1.81-1.51,3.08-1.51c1.43,0,2.48,.63,3.16,1.88v-1.73h1.63v9.62Zm-7.35-4.46c0,1.17,.29,2.06,.87,2.67s1.23,.92,1.96,.92,1.43-.29,2.01-.88c.58-.58,.88-1.46,.88-2.61,0-1.33-.28-2.33-.85-2.97-.56-.65-1.22-.97-1.96-.97-.89,0-1.6,.35-2.13,1.06-.52,.71-.78,1.63-.78,2.78Z"/><path class="cls-1" d="M162.71,48.57c-.54,1.42-1.17,2.41-1.91,2.99-.74,.58-1.58,.87-2.53,.87-.36,0-.65-.03-.87-.1v-1.47c.21,.06,.44,.08,.7,.08,1.39,0,2.37-.79,2.95-2.37l-4.23-10.2h1.84l1.36,3.45,1.84,4.75c.11-.36,.66-1.94,1.65-4.75l1.22-3.45h1.75l-3.78,10.2Z"/><path class="cls-1" d="M178.23,39.69h-2.31v9.14h-1.63v-9.14h-1.8v-1.32h1.8v-.97c0-1.02,.27-1.82,.82-2.41,.54-.59,1.3-.89,2.26-.89,.33,0,.67,.05,1.01,.14v1.49c-.33-.11-.65-.16-.95-.16-.44,0-.8,.15-1.08,.45-.28,.3-.42,.77-.42,1.4v.95h2.31v1.32Z"/><path class="cls-1" d="M189.38,43.64c0,1.55-.44,2.84-1.32,3.86-.88,1.02-2.09,1.53-3.63,1.53s-2.69-.51-3.56-1.52c-.87-1.01-1.31-2.29-1.31-3.83s.45-2.85,1.35-3.89c.9-1.04,2.07-1.56,3.52-1.56,1.58,0,2.8,.51,3.66,1.53,.86,1.02,1.29,2.31,1.29,3.88Zm-8.13,.02c0,1.09,.29,2.01,.87,2.78s1.35,1.15,2.31,1.15c1.05,0,1.85-.37,2.41-1.13,.56-.75,.85-1.68,.85-2.8s-.27-2.11-.81-2.86-1.36-1.13-2.46-1.13c-.99,0-1.77,.39-2.33,1.16-.56,.77-.85,1.71-.85,2.83Z"/><path class="cls-1" d="M193.38,48.84h-1.63l.02-10.47h1.61v1.84c.55-1.29,1.5-1.94,2.85-1.94,.25,0,.44,.01,.58,.04v1.61c-.29-.1-.59-.14-.89-.14-.73,0-1.34,.34-1.82,1.01-.48,.67-.72,1.45-.72,2.33v5.72Z"/><path class="cls-1" d="M211.79,48.84h-1.63v-6.77c0-.76-.2-1.34-.59-1.75-.39-.41-.91-.62-1.54-.62-.77,0-1.45,.3-2.02,.89-.58,.59-.87,1.44-.87,2.54v5.72h-1.61v-14.59h1.61v5.94c.62-1.31,1.72-1.96,3.3-1.96,1,0,1.81,.31,2.43,.93s.92,1.46,.92,2.52v7.16Z"/><path class="cls-1" d="M222.32,48.3c-.81,.43-1.8,.64-2.97,.64-1.58,0-2.86-.49-3.83-1.46s-1.45-2.25-1.45-3.85,.43-2.98,1.3-3.94,1.98-1.44,3.34-1.44,2.35,.42,3.12,1.26c.77,.84,1.16,2.03,1.16,3.57,0,.44-.03,.85-.1,1.22h-7.14c.12,1.03,.52,1.82,1.18,2.37,.66,.55,1.53,.83,2.6,.83,1.17,0,2.11-.24,2.81-.72v1.53Zm-3.61-8.63c-.78,0-1.45,.28-2,.85-.55,.56-.87,1.37-.97,2.41h5.61v-.41c0-.87-.23-1.56-.7-2.07-.47-.52-1.12-.77-1.94-.77Z"/><path class="cls-1" d="M231.11,47.6c-.54,.9-1.51,1.34-2.93,1.34-.98,0-1.76-.29-2.36-.87s-.9-1.31-.9-2.19c0-1,.38-1.79,1.15-2.34,.76-.56,1.81-.84,3.13-.84h1.9v-.54c0-.83-.19-1.45-.56-1.87-.37-.42-1-.63-1.88-.63-1.11,0-2.1,.3-2.97,.89v-1.63c.78-.48,1.82-.72,3.1-.72,2.63,0,3.94,1.34,3.94,4v6.63h-1.61v-1.24Zm-2.46-.02c.74,0,1.33-.21,1.78-.63,.44-.42,.66-.95,.66-1.6v-1.34h-1.82c-.88,0-1.54,.17-1.98,.52-.44,.34-.66,.78-.66,1.3s.17,.95,.52,1.27c.34,.32,.85,.49,1.51,.49Z"/><path class="cls-1" d="M237.32,48.84h-1.63v-14.59h1.63v14.59Z"/><path class="cls-1" d="M245.66,48.57c-.45,.25-.96,.37-1.53,.37-2.06,0-3.1-1.05-3.1-3.16v-6.09h-1.67v-1.32h1.67v-2.6h1.63v2.6h2.89v1.32h-2.89v6.13c0,1.11,.52,1.67,1.57,1.67,.54,0,1.01-.16,1.42-.48v1.55Z"/><path class="cls-1" d="M256.29,48.84h-1.63v-6.77c0-.76-.2-1.34-.59-1.75-.39-.41-.91-.62-1.54-.62-.77,0-1.45,.3-2.02,.89-.58,.59-.87,1.44-.87,2.54v5.72h-1.61v-14.59h1.61v5.94c.62-1.31,1.72-1.96,3.3-1.96,1,0,1.81,.31,2.43,.93s.92,1.46,.92,2.52v7.16Z"/><path class="cls-1" d="M269.87,47.6c-.54,.9-1.51,1.34-2.93,1.34-.98,0-1.76-.29-2.36-.87s-.9-1.31-.9-2.19c0-1,.38-1.79,1.15-2.34,.76-.56,1.81-.84,3.13-.84h1.9v-.54c0-.83-.19-1.45-.56-1.87-.37-.42-1-.63-1.88-.63-1.11,0-2.1,.3-2.97,.89v-1.63c.78-.48,1.82-.72,3.1-.72,2.63,0,3.94,1.34,3.94,4v6.63h-1.61v-1.24Zm-2.46-.02c.74,0,1.33-.21,1.78-.63,.44-.42,.66-.95,.66-1.6v-1.34h-1.82c-.88,0-1.54,.17-1.98,.52-.44,.34-.66,.78-.66,1.3s.17,.95,.52,1.27c.34,.32,.85,.49,1.51,.49Z"/><path class="cls-1" d="M282.63,48.84h-1.63v-6.77c0-.77-.2-1.36-.59-1.76-.39-.41-.91-.61-1.54-.61-.78,0-1.46,.3-2.03,.91s-.86,1.44-.86,2.52v5.72h-1.61v-10.47h1.61v1.82c.62-1.31,1.72-1.96,3.3-1.96,1.02,0,1.83,.31,2.44,.93s.91,1.44,.91,2.48v7.2Z"/><path class="cls-1" d="M294.21,48.84h-1.63v-1.55c-.74,1.14-1.82,1.71-3.22,1.71s-2.48-.52-3.27-1.55c-.79-1.03-1.19-2.28-1.19-3.76,0-1.64,.42-2.96,1.26-3.97,.84-1.01,1.92-1.52,3.24-1.52s2.42,.59,3.18,1.75v-5.72h1.63v14.59Zm-7.62-5.12c0,1.13,.28,2.04,.83,2.75,.55,.7,1.25,1.05,2.08,1.05s1.58-.32,2.18-.95c.6-.63,.9-1.64,.9-3.03s-.31-2.29-.93-2.91c-.62-.62-1.3-.93-2.04-.93-.87,0-1.59,.35-2.16,1.04s-.86,1.69-.86,2.98Z"/><path class="cls-1" d="M308.56,46.05c0,.89-.31,1.6-.94,2.13-.63,.52-1.48,.78-2.57,.78-1.27,0-2.29-.21-3.08-.64v-1.59c.92,.55,1.91,.83,2.97,.83,.63,0,1.11-.12,1.44-.37s.5-.58,.5-1.01c0-.5-.18-.88-.55-1.16-.36-.27-.97-.58-1.83-.93-.78-.3-1.41-.68-1.89-1.14s-.71-1.07-.71-1.84c0-.87,.33-1.56,.98-2.07,.65-.52,1.47-.77,2.45-.77,1.09,0,1.96,.15,2.62,.45v1.55c-.63-.39-1.5-.58-2.6-.58-.55,0-.99,.13-1.31,.38-.32,.26-.49,.58-.49,.98,0,.25,.05,.46,.14,.65,.1,.19,.29,.37,.57,.55,.28,.18,.49,.3,.62,.36,.13,.06,.42,.19,.86,.38,.88,.36,1.57,.76,2.06,1.22s.74,1.07,.74,1.84Z"/><path class="cls-1" d="M319.97,43.64c0,1.55-.44,2.84-1.32,3.86-.88,1.02-2.09,1.53-3.63,1.53s-2.69-.51-3.56-1.52c-.87-1.01-1.31-2.29-1.31-3.83s.45-2.85,1.35-3.89c.9-1.04,2.07-1.56,3.52-1.56,1.58,0,2.8,.51,3.66,1.53,.86,1.02,1.29,2.31,1.29,3.88Zm-8.13,.02c0,1.09,.29,2.01,.87,2.78s1.35,1.15,2.31,1.15c1.05,0,1.85-.37,2.41-1.13,.56-.75,.85-1.68,.85-2.8s-.27-2.11-.81-2.86-1.36-1.13-2.46-1.13c-.99,0-1.77,.39-2.33,1.16-.56,.77-.85,1.71-.85,2.83Z"/><path class="cls-1" d="M329.57,48.47c-.66,.4-1.47,.6-2.44,.6-1.65,0-2.96-.53-3.93-1.58-.97-1.05-1.45-2.34-1.45-3.85s.48-2.77,1.45-3.84,2.29-1.61,3.97-1.61c.89,0,1.69,.19,2.39,.58v1.55c-.63-.43-1.38-.64-2.23-.64-1.18,0-2.13,.38-2.84,1.15-.71,.76-1.06,1.71-1.06,2.84,.01,1.13,.36,2.07,1.03,2.82,.67,.75,1.63,1.12,2.87,1.12,.8,0,1.54-.23,2.23-.68v1.55Z"/><path class="cls-1" d="M333.74,34.33c.21,.21,.31,.46,.31,.76s-.1,.55-.31,.75c-.21,.2-.46,.3-.76,.3s-.55-.1-.75-.3c-.2-.2-.3-.45-.3-.75s.1-.56,.3-.76c.2-.21,.45-.31,.75-.31s.56,.1,.76,.31Zm.06,14.51h-1.63v-10.47h1.63v10.47Z"/><path class="cls-1" d="M342.55,47.6c-.54,.9-1.51,1.34-2.93,1.34-.98,0-1.76-.29-2.36-.87s-.9-1.31-.9-2.19c0-1,.38-1.79,1.15-2.34,.76-.56,1.81-.84,3.13-.84h1.9v-.54c0-.83-.19-1.45-.56-1.87-.37-.42-1-.63-1.88-.63-1.11,0-2.1,.3-2.97,.89v-1.63c.78-.48,1.82-.72,3.1-.72,2.63,0,3.94,1.34,3.94,4v6.63h-1.61v-1.24Zm-2.46-.02c.74,0,1.33-.21,1.78-.63,.44-.42,.66-.95,.66-1.6v-1.34h-1.82c-.88,0-1.54,.17-1.98,.52-.44,.34-.66,.78-.66,1.3s.17,.95,.52,1.27c.34,.32,.85,.49,1.51,.49Z"/><path class="cls-1" d="M348.76,48.84h-1.63v-14.59h1.63v14.59Z"/><path class="cls-1" d="M364.1,48.47c-.66,.4-1.47,.6-2.44,.6-1.65,0-2.96-.53-3.93-1.58-.97-1.05-1.45-2.34-1.45-3.85s.48-2.77,1.45-3.84,2.29-1.61,3.97-1.61c.89,0,1.69,.19,2.39,.58v1.55c-.63-.43-1.38-.64-2.23-.64-1.18,0-2.13,.38-2.84,1.15-.71,.76-1.06,1.71-1.06,2.84,.01,1.13,.36,2.07,1.03,2.82,.67,.75,1.63,1.12,2.87,1.12,.8,0,1.54-.23,2.23-.68v1.55Z"/><path class="cls-1" d="M372.27,47.6c-.54,.9-1.51,1.34-2.93,1.34-.98,0-1.76-.29-2.36-.87s-.9-1.31-.9-2.19c0-1,.38-1.79,1.15-2.34,.76-.56,1.81-.84,3.13-.84h1.9v-.54c0-.83-.19-1.45-.56-1.87-.37-.42-1-.63-1.88-.63-1.11,0-2.1,.3-2.97,.89v-1.63c.78-.48,1.82-.72,3.1-.72,2.63,0,3.94,1.34,3.94,4v6.63h-1.61v-1.24Zm-2.46-.02c.74,0,1.33-.21,1.78-.63,.44-.42,.66-.95,.66-1.6v-1.34h-1.82c-.88,0-1.54,.17-1.98,.52-.44,.34-.66,.78-.66,1.3s.17,.95,.52,1.27c.34,.32,.85,.49,1.51,.49Z"/><path class="cls-1" d="M378.38,48.84h-1.63l.02-10.47h1.61v1.84c.55-1.29,1.5-1.94,2.85-1.94,.25,0,.44,.01,.58,.04v1.61c-.29-.1-.59-.14-.89-.14-.73,0-1.34,.34-1.82,1.01-.48,.67-.72,1.45-.72,2.33v5.72Z"/><path class="cls-1" d="M391.14,48.3c-.81,.43-1.8,.64-2.97,.64-1.58,0-2.86-.49-3.83-1.46s-1.45-2.25-1.45-3.85,.43-2.98,1.3-3.94,1.98-1.44,3.34-1.44,2.35,.42,3.12,1.26c.77,.84,1.16,2.03,1.16,3.57,0,.44-.03,.85-.1,1.22h-7.14c.12,1.03,.52,1.82,1.18,2.37,.66,.55,1.53,.83,2.6,.83,1.17,0,2.11-.24,2.81-.72v1.53Zm-3.61-8.63c-.78,0-1.45,.28-2,.85-.55,.56-.87,1.37-.97,2.41h5.61v-.41c0-.87-.23-1.56-.7-2.07-.47-.52-1.12-.77-1.94-.77Z"/></g></svg>